<svg xmlns="http://www.w3.org/2000/svg" width="42" height="42" viewBox="0 0 42 42"><defs><style>.a{fill:#e0301e;}.b{fill:#fff;}</style></defs><g transform="translate(-114 -558)"><circle class="a" cx="21" cy="21" r="21" transform="translate(114 558)"/><g transform="translate(119 563)"><path class="b" d="M16,32c-.265,0-.53-.019-.787-.037L15,31.949A15.976,15.976,0,0,1,.05,17c-.005-.086-.011-.172-.017-.258C.017,16.5,0,16.25,0,16s.017-.5.033-.741c.006-.087.012-.173.017-.259A15.977,15.977,0,0,1,15,.05l.231-.015C15.482.018,15.741,0,16,0s.518.018.769.035L17,.05A15.974,15.974,0,0,1,31.949,15q.007.106.015.212c.018.255.037.519.037.783v.011c0,.263-.019.526-.037.78q-.008.107-.015.215A15.987,15.987,0,0,1,17,31.949l-.213.015C16.53,31.982,16.265,32,16,32Zm7.931-15A7.978,7.978,0,0,1,17,23.931v6.018A14.046,14.046,0,0,0,29.949,17ZM2.051,17A14.048,14.048,0,0,0,15,29.949V23.931A7.977,7.977,0,0,1,8.069,17ZM17,17v4.9A5.985,5.985,0,0,0,21.9,17Zm-6.9,0h0A5.986,5.986,0,0,0,15,21.9V17H10.1ZM17,2.051V8.069A7.977,7.977,0,0,1,23.931,15h6.018A14.046,14.046,0,0,0,17,2.051ZM17,10.1V15h4.9A5.985,5.985,0,0,0,17,10.1Zm-2,0h0A5.986,5.986,0,0,0,10.1,15H15V10.1Zm0-8.05A14.048,14.048,0,0,0,2.051,15H8.069A7.975,7.975,0,0,1,15,8.069Z"/></g></g></svg>