<svg xmlns="http://www.w3.org/2000/svg" width="42" height="42" viewBox="0 0 42 42"><defs><style>.a{fill:#e0301e;}.b{fill:#fff;}</style></defs><g transform="translate(-534 -558)"><circle class="a" cx="21" cy="21" r="21" transform="translate(534 558)"/><g transform="translate(539 562)"><path class="b" d="M21,32a10.86,10.86,0,0,1-5-1.211A10.992,10.992,0,0,1,5.039,11.764l-.006-.086C5.017,11.457,5,11.229,5,11a11,11,0,0,1,22,0c0,.229-.017.457-.032.678l-.006.086A11,11,0,0,1,21,32Zm5.587-18.048a10.984,10.984,0,0,1-4.626,6.283l.007.091c.016.22.032.447.032.673a10.969,10.969,0,0,1-3.992,8.479,8.991,8.991,0,0,0,8.58-15.526Zm-21.174,0a8.988,8.988,0,0,0,8.581,15.526A10.97,10.97,0,0,1,10,21c0-.226.016-.453.032-.673l.006-.091A10.987,10.987,0,0,1,5.413,13.953Zm6.6,7.291A9.012,9.012,0,0,0,16,28.482a9.013,9.013,0,0,0,3.988-7.239,10.9,10.9,0,0,1-7.976,0ZM16,13.518h0a8.949,8.949,0,0,0-3.807,5.629,8.92,8.92,0,0,0,7.614,0A8.957,8.957,0,0,0,16,13.518ZM21,12a8.961,8.961,0,0,0-2.993.521,10.952,10.952,0,0,1,3.58,5.527,9,9,0,0,0,3.219-5.194A8.919,8.919,0,0,0,21,12ZM11,12a8.925,8.925,0,0,0-3.807.854,9.011,9.011,0,0,0,3.22,5.194,10.947,10.947,0,0,1,3.58-5.527A8.964,8.964,0,0,0,11,12Zm0-2a10.863,10.863,0,0,1,5,1.211,10.905,10.905,0,0,1,8.987-.454,8.991,8.991,0,0,0-17.976,0A10.969,10.969,0,0,1,11,10Z" transform="translate(0 0)"/></g></g></svg>