<svg xmlns="http://www.w3.org/2000/svg" width="66" height="50" viewBox="0 0 66 50"><defs><style>.a{fill:#e669a2;}.b{fill:#f3bc87;}.c{fill:#ee9c34;}.d{fill:#e3731c;}.e{fill:#f3be26;}.f{fill:#db4e18;}.g{fill:#e88c14;}.h{fill:#d1390d;}.i{fill:#d85604;}.j{fill:#c22303;}.k{fill:#c14303;}.l{fill:#ad1b02;}</style></defs><path d="M8.214,18H.205V16.861l1.825-.447V2.672H0V1.492L4.9.03H6.177V1.671C8.485.321,9.266.093,10.44.093c2.74,0,4.73,2.47,4.73,5.872A6.444,6.444,0,0,1,13.3,10.741,7.066,7.066,0,0,1,8.267,12.56a20.058,20.058,0,0,1-2.091-.121v3.974l2.043.447L8.214,18ZM7.6,2.672A12,12,0,0,0,6.177,2.8v8.247c.336.017.479.017.7.017,2.549,0,3.9-1.567,3.9-4.532a4.445,4.445,0,0,0-.813-2.875A2.886,2.886,0,0,0,7.6,2.672Zm35.743,10.1a6.078,6.078,0,0,1-6.511-6.238A6.168,6.168,0,0,1,38.84,1.8,7.641,7.641,0,0,1,44.065,0,6.362,6.362,0,0,1,47.54.874a2.676,2.676,0,0,1,1.338,2.282A2.048,2.048,0,0,1,46.61,5.2a3.8,3.8,0,0,1-2-.6V1.335c-2.126.338-3.2,1.878-3.2,4.578,0,2.718,1.471,4.544,3.66,4.544.984,0,1.865-.288,3.931-1.283v2.2A12.253,12.253,0,0,1,43.345,12.769Zm-22.168-.208H18.024V2.733L15.586,2.49V1.369L20.057.3h1.7V8.312L26.681.3h2.962V9.589l3.116-4.073V.724A2.527,2.527,0,0,1,34.548,0a2.1,2.1,0,0,1,2.175,2.075c0,1.164-.706,2.146-2.576,4.456l-4.8,6.029H25.9V4.942L21.177,12.56Z" transform="translate(0 32)"/><g transform="translate(30)"><rect class="a" width="4" height="6" transform="translate(32 16)"/><rect class="b" width="2" height="4" transform="translate(24 2)"/><rect class="c" width="12" height="2" transform="translate(12)"/><rect class="d" width="12" height="4" transform="translate(12 2)"/><rect class="e" width="6" height="10" transform="translate(26 6)"/><rect class="f" width="6" height="6" transform="translate(26 16)"/><rect class="g" width="2" height="10" transform="translate(24 6)"/><rect class="h" width="2" height="6" transform="translate(24 16)"/><path class="i" d="M8,10h4V0H0V6H8Z" transform="translate(12 6)"/><rect class="j" width="5" height="6" transform="translate(19 16)"/><rect class="k" width="8" height="4" transform="translate(12 12)"/><rect class="l" width="8" height="6" transform="translate(12 16)"/><rect class="l" width="12" height="3" transform="translate(0 22)"/></g></svg>