<svg xmlns="http://www.w3.org/2000/svg" width="42" height="42" viewBox="0 0 42 42"><defs><style>.a{fill:#e0301e;}.b{fill:#fff;}</style></defs><g transform="translate(-534 -347)"><circle class="a" cx="21" cy="21" r="21" transform="translate(534 347)"/><g transform="translate(539 351)"><path class="b" d="M6.7,30a.88.88,0,0,1-.745-.338A2.4,2.4,0,0,1,5.9,27.637l2.473-8.71L1.166,13.31c-.9-.7-1.3-1.376-1.129-1.907s.9-.857,2.057-.9l9.193-.379L14.5,1.644C14.9.584,15.432,0,16,0s1.1.584,1.5,1.644l3.208,8.475L29.9,10.5c1.155.048,1.886.369,2.058.9s-.231,1.208-1.128,1.908l-7.21,5.617,2.473,8.71a2.4,2.4,0,0,1-.055,2.024A.881.881,0,0,1,25.3,30a3.223,3.223,0,0,1-1.631-.626l-7.664-5-7.664,5A3.227,3.227,0,0,1,6.7,30ZM16,21.828h0L23.623,26.8l-2.461-8.663,7.172-5.587-9.144-.377L16,3.747l-3.19,8.43-9.144.377,7.172,5.587L8.377,26.8,16,21.828Z" transform="translate(0 1)"/></g></g></svg>